<mxfile host="app.diagrams.net" modified="2020-12-28T01:18:38.057Z" agent="5.0 (Windows NT 10.0; Win64; x64) AppleWebKit/537.36 (KHTML, like Gecko) Chrome/87.0.4280.88 Safari/537.36" etag="dSj9znkszvwFJfUajAVN" version="14.1.2" type="github">
  <diagram id="IQCmbPOS1j4bv17Skjl6" name="Page-1">
    <mxGraphModel dx="2062" dy="705" grid="1" gridSize="10" guides="1" tooltips="1" connect="1" arrows="1" fold="1" page="1" pageScale="1" pageWidth="2339" pageHeight="3300" math="0" shadow="0">
      <root>
        <mxCell id="0" />
        <mxCell id="1" parent="0" />
        <mxCell id="3qMhevc5FPrKQXxK73y2-7" value="" style="rounded=0;whiteSpace=wrap;html=1;fillColor=#e1d5e7;strokeColor=#9673a6;" vertex="1" parent="1">
          <mxGeometry x="490" y="260" width="760" height="170" as="geometry" />
        </mxCell>
        <mxCell id="3qMhevc5FPrKQXxK73y2-21" value="" style="rounded=0;whiteSpace=wrap;html=1;fillColor=#fff2cc;strokeColor=#d6b656;" vertex="1" parent="1">
          <mxGeometry x="1280" y="260" width="260" height="220" as="geometry" />
        </mxCell>
        <mxCell id="3qMhevc5FPrKQXxK73y2-1" value="BCrypt" style="rounded=0;whiteSpace=wrap;html=1;gradientColor=#b3b3b3;fillColor=#f5f5f5;strokeColor=#666666;" vertex="1" parent="1">
          <mxGeometry x="640" y="30" width="120" height="60" as="geometry" />
        </mxCell>
        <mxCell id="3qMhevc5FPrKQXxK73y2-2" value="MongoDB" style="rounded=0;whiteSpace=wrap;html=1;gradientColor=#b3b3b3;fillColor=#f5f5f5;strokeColor=#666666;" vertex="1" parent="1">
          <mxGeometry x="860" y="30" width="120" height="60" as="geometry" />
        </mxCell>
        <mxCell id="3qMhevc5FPrKQXxK73y2-3" value="" style="rounded=0;whiteSpace=wrap;html=1;fillColor=#b1ddf0;strokeColor=#10739e;" vertex="1" parent="1">
          <mxGeometry x="490" y="130" width="760" height="100" as="geometry" />
        </mxCell>
        <mxCell id="3qMhevc5FPrKQXxK73y2-45" style="edgeStyle=orthogonalEdgeStyle;rounded=0;orthogonalLoop=1;jettySize=auto;html=1;exitX=0.5;exitY=0;exitDx=0;exitDy=0;entryX=0.5;entryY=1;entryDx=0;entryDy=0;strokeWidth=3;" edge="1" parent="1" source="3qMhevc5FPrKQXxK73y2-4" target="3qMhevc5FPrKQXxK73y2-1">
          <mxGeometry relative="1" as="geometry" />
        </mxCell>
        <mxCell id="3qMhevc5FPrKQXxK73y2-4" value="BCryptAdpter&lt;br&gt;" style="rounded=0;whiteSpace=wrap;html=1;" vertex="1" parent="1">
          <mxGeometry x="540" y="150" width="120" height="60" as="geometry" />
        </mxCell>
        <mxCell id="3qMhevc5FPrKQXxK73y2-46" style="edgeStyle=orthogonalEdgeStyle;rounded=0;orthogonalLoop=1;jettySize=auto;html=1;exitX=0.5;exitY=0;exitDx=0;exitDy=0;entryX=0.5;entryY=1;entryDx=0;entryDy=0;strokeWidth=3;" edge="1" parent="1" source="3qMhevc5FPrKQXxK73y2-5" target="3qMhevc5FPrKQXxK73y2-2">
          <mxGeometry relative="1" as="geometry" />
        </mxCell>
        <mxCell id="3qMhevc5FPrKQXxK73y2-57" style="edgeStyle=orthogonalEdgeStyle;rounded=0;orthogonalLoop=1;jettySize=auto;html=1;exitX=0.5;exitY=1;exitDx=0;exitDy=0;strokeWidth=3;" edge="1" parent="1" source="3qMhevc5FPrKQXxK73y2-5" target="3qMhevc5FPrKQXxK73y2-9">
          <mxGeometry relative="1" as="geometry" />
        </mxCell>
        <mxCell id="3qMhevc5FPrKQXxK73y2-5" value="LoadUserByEmailMongoRepo&lt;br&gt;" style="rounded=0;whiteSpace=wrap;html=1;" vertex="1" parent="1">
          <mxGeometry x="760" y="150" width="200" height="60" as="geometry" />
        </mxCell>
        <mxCell id="3qMhevc5FPrKQXxK73y2-47" style="edgeStyle=orthogonalEdgeStyle;rounded=0;orthogonalLoop=1;jettySize=auto;html=1;exitX=0.5;exitY=0;exitDx=0;exitDy=0;entryX=0.75;entryY=1;entryDx=0;entryDy=0;strokeWidth=3;" edge="1" parent="1" source="3qMhevc5FPrKQXxK73y2-6" target="3qMhevc5FPrKQXxK73y2-2">
          <mxGeometry relative="1" as="geometry" />
        </mxCell>
        <mxCell id="3qMhevc5FPrKQXxK73y2-58" style="edgeStyle=orthogonalEdgeStyle;rounded=0;orthogonalLoop=1;jettySize=auto;html=1;exitX=0.5;exitY=1;exitDx=0;exitDy=0;entryX=0.5;entryY=0;entryDx=0;entryDy=0;strokeWidth=3;" edge="1" parent="1" source="3qMhevc5FPrKQXxK73y2-6" target="3qMhevc5FPrKQXxK73y2-10">
          <mxGeometry relative="1" as="geometry" />
        </mxCell>
        <mxCell id="3qMhevc5FPrKQXxK73y2-6" value="AddUserMongoRepo&lt;br&gt;" style="rounded=0;whiteSpace=wrap;html=1;" vertex="1" parent="1">
          <mxGeometry x="1030" y="150" width="120" height="60" as="geometry" />
        </mxCell>
        <mxCell id="3qMhevc5FPrKQXxK73y2-50" style="edgeStyle=orthogonalEdgeStyle;rounded=0;orthogonalLoop=1;jettySize=auto;html=1;exitX=0.5;exitY=0;exitDx=0;exitDy=0;entryX=0.5;entryY=1;entryDx=0;entryDy=0;strokeWidth=3;" edge="1" parent="1" source="3qMhevc5FPrKQXxK73y2-8" target="3qMhevc5FPrKQXxK73y2-4">
          <mxGeometry relative="1" as="geometry" />
        </mxCell>
        <mxCell id="3qMhevc5FPrKQXxK73y2-8" value="Encrypter" style="rounded=1;whiteSpace=wrap;html=1;dashed=1;" vertex="1" parent="1">
          <mxGeometry x="540" y="280" width="120" height="60" as="geometry" />
        </mxCell>
        <mxCell id="3qMhevc5FPrKQXxK73y2-9" value="LoadUserByEmailRepo" style="rounded=1;whiteSpace=wrap;html=1;dashed=1;" vertex="1" parent="1">
          <mxGeometry x="760" y="280" width="200" height="60" as="geometry" />
        </mxCell>
        <mxCell id="3qMhevc5FPrKQXxK73y2-10" value="AddUserRepo" style="rounded=1;whiteSpace=wrap;html=1;dashed=1;" vertex="1" parent="1">
          <mxGeometry x="1030" y="280" width="120" height="60" as="geometry" />
        </mxCell>
        <mxCell id="3qMhevc5FPrKQXxK73y2-43" style="edgeStyle=orthogonalEdgeStyle;rounded=0;orthogonalLoop=1;jettySize=auto;html=1;exitX=0;exitY=0.5;exitDx=0;exitDy=0;entryX=0.5;entryY=1;entryDx=0;entryDy=0;strokeWidth=3;gradientColor=#d5739d;fillColor=#e6d0de;strokeColor=#996185;" edge="1" parent="1" source="3qMhevc5FPrKQXxK73y2-12" target="3qMhevc5FPrKQXxK73y2-8">
          <mxGeometry relative="1" as="geometry" />
        </mxCell>
        <mxCell id="3qMhevc5FPrKQXxK73y2-54" style="edgeStyle=orthogonalEdgeStyle;rounded=0;orthogonalLoop=1;jettySize=auto;html=1;exitX=1;exitY=0.5;exitDx=0;exitDy=0;entryX=0.25;entryY=1;entryDx=0;entryDy=0;strokeWidth=3;gradientColor=#d5739d;fillColor=#e6d0de;strokeColor=#996185;" edge="1" parent="1" source="3qMhevc5FPrKQXxK73y2-12" target="3qMhevc5FPrKQXxK73y2-22">
          <mxGeometry relative="1" as="geometry" />
        </mxCell>
        <mxCell id="3qMhevc5FPrKQXxK73y2-55" style="edgeStyle=orthogonalEdgeStyle;rounded=0;orthogonalLoop=1;jettySize=auto;html=1;exitX=1;exitY=0.25;exitDx=0;exitDy=0;entryX=0.5;entryY=1;entryDx=0;entryDy=0;strokeWidth=3;gradientColor=#d5739d;fillColor=#e6d0de;strokeColor=#996185;" edge="1" parent="1" source="3qMhevc5FPrKQXxK73y2-12" target="3qMhevc5FPrKQXxK73y2-10">
          <mxGeometry relative="1" as="geometry" />
        </mxCell>
        <mxCell id="3qMhevc5FPrKQXxK73y2-56" style="edgeStyle=orthogonalEdgeStyle;rounded=0;orthogonalLoop=1;jettySize=auto;html=1;exitX=0.5;exitY=0;exitDx=0;exitDy=0;strokeWidth=3;" edge="1" parent="1" source="3qMhevc5FPrKQXxK73y2-12" target="3qMhevc5FPrKQXxK73y2-9">
          <mxGeometry relative="1" as="geometry" />
        </mxCell>
        <mxCell id="3qMhevc5FPrKQXxK73y2-12" value="DbAddAccount" style="rounded=0;whiteSpace=wrap;html=1;" vertex="1" parent="1">
          <mxGeometry x="760" y="360" width="200" height="60" as="geometry" />
        </mxCell>
        <mxCell id="3qMhevc5FPrKQXxK73y2-40" style="edgeStyle=orthogonalEdgeStyle;rounded=0;orthogonalLoop=1;jettySize=auto;html=1;exitX=1;exitY=0.5;exitDx=0;exitDy=0;entryX=0;entryY=0.5;entryDx=0;entryDy=0;strokeWidth=3;gradientColor=#ea6b66;fillColor=#f8cecc;strokeColor=#b85450;" edge="1" parent="1" source="3qMhevc5FPrKQXxK73y2-13" target="3qMhevc5FPrKQXxK73y2-24">
          <mxGeometry relative="1" as="geometry" />
        </mxCell>
        <mxCell id="3qMhevc5FPrKQXxK73y2-41" style="edgeStyle=orthogonalEdgeStyle;rounded=0;orthogonalLoop=1;jettySize=auto;html=1;exitX=1;exitY=0.25;exitDx=0;exitDy=0;entryX=0;entryY=0.5;entryDx=0;entryDy=0;strokeWidth=3;gradientColor=#ea6b66;fillColor=#f8cecc;strokeColor=#b85450;" edge="1" parent="1" source="3qMhevc5FPrKQXxK73y2-13" target="3qMhevc5FPrKQXxK73y2-7">
          <mxGeometry relative="1" as="geometry">
            <Array as="points">
              <mxPoint x="460" y="345" />
            </Array>
          </mxGeometry>
        </mxCell>
        <mxCell id="3qMhevc5FPrKQXxK73y2-42" style="edgeStyle=orthogonalEdgeStyle;rounded=0;orthogonalLoop=1;jettySize=auto;html=1;exitX=0.5;exitY=0;exitDx=0;exitDy=0;entryX=0;entryY=0.5;entryDx=0;entryDy=0;strokeWidth=3;gradientColor=#ea6b66;fillColor=#f8cecc;strokeColor=#b85450;" edge="1" parent="1" source="3qMhevc5FPrKQXxK73y2-13" target="3qMhevc5FPrKQXxK73y2-3">
          <mxGeometry relative="1" as="geometry" />
        </mxCell>
        <mxCell id="3qMhevc5FPrKQXxK73y2-65" style="edgeStyle=orthogonalEdgeStyle;rounded=0;orthogonalLoop=1;jettySize=auto;html=1;exitX=0.5;exitY=1;exitDx=0;exitDy=0;entryX=0.5;entryY=1;entryDx=0;entryDy=0;strokeWidth=3;gradientColor=#ea6b66;fillColor=#f8cecc;strokeColor=#b85450;" edge="1" parent="1" source="3qMhevc5FPrKQXxK73y2-13" target="3qMhevc5FPrKQXxK73y2-23">
          <mxGeometry relative="1" as="geometry">
            <Array as="points">
              <mxPoint x="330" y="730" />
              <mxPoint x="960" y="730" />
            </Array>
          </mxGeometry>
        </mxCell>
        <mxCell id="3qMhevc5FPrKQXxK73y2-13" value="" style="rounded=0;whiteSpace=wrap;html=1;fillColor=#f8cecc;strokeColor=#b85450;" vertex="1" parent="1">
          <mxGeometry x="200" y="250" width="260" height="390" as="geometry" />
        </mxCell>
        <mxCell id="3qMhevc5FPrKQXxK73y2-15" value="ExpressRouteAdapter" style="rounded=0;whiteSpace=wrap;html=1;dashed=1;" vertex="1" parent="1">
          <mxGeometry x="240" y="360" width="200" height="60" as="geometry" />
        </mxCell>
        <mxCell id="3qMhevc5FPrKQXxK73y2-17" value="SignUpRouter" style="rounded=0;whiteSpace=wrap;html=1;dashed=1;" vertex="1" parent="1">
          <mxGeometry x="240" y="450" width="200" height="60" as="geometry" />
        </mxCell>
        <mxCell id="3qMhevc5FPrKQXxK73y2-18" value="App" style="rounded=0;whiteSpace=wrap;html=1;dashed=1;" vertex="1" parent="1">
          <mxGeometry x="240" y="540" width="200" height="60" as="geometry" />
        </mxCell>
        <mxCell id="3qMhevc5FPrKQXxK73y2-19" value="SignUpComposer" style="rounded=0;whiteSpace=wrap;html=1;dashed=1;" vertex="1" parent="1">
          <mxGeometry x="240" y="270" width="200" height="60" as="geometry" />
        </mxCell>
        <mxCell id="3qMhevc5FPrKQXxK73y2-20" value="Express" style="rounded=0;whiteSpace=wrap;html=1;dashed=1;gradientColor=#b3b3b3;fillColor=#f5f5f5;strokeColor=#666666;" vertex="1" parent="1">
          <mxGeometry x="20" y="430" width="170" height="60" as="geometry" />
        </mxCell>
        <mxCell id="3qMhevc5FPrKQXxK73y2-22" value="AddAccount" style="rounded=1;whiteSpace=wrap;html=1;dashed=1;" vertex="1" parent="1">
          <mxGeometry x="1310" y="300" width="200" height="60" as="geometry" />
        </mxCell>
        <mxCell id="3qMhevc5FPrKQXxK73y2-23" value="" style="rounded=0;whiteSpace=wrap;html=1;fillColor=#d5e8d4;strokeColor=#82b366;" vertex="1" parent="1">
          <mxGeometry x="670" y="465" width="580" height="215" as="geometry" />
        </mxCell>
        <mxCell id="3qMhevc5FPrKQXxK73y2-24" value="" style="rounded=0;whiteSpace=wrap;html=1;fillColor=#dae8fc;strokeColor=#6c8ebf;" vertex="1" parent="1">
          <mxGeometry x="510" y="465" width="150" height="95" as="geometry" />
        </mxCell>
        <mxCell id="3qMhevc5FPrKQXxK73y2-25" value="EmailValidator" style="rounded=1;whiteSpace=wrap;html=1;dashed=1;" vertex="1" parent="1">
          <mxGeometry x="740" y="480" width="200" height="60" as="geometry" />
        </mxCell>
        <mxCell id="3qMhevc5FPrKQXxK73y2-26" value="HttpRequest" style="rounded=1;whiteSpace=wrap;html=1;dashed=1;" vertex="1" parent="1">
          <mxGeometry x="680" y="580" width="80" height="60" as="geometry" />
        </mxCell>
        <mxCell id="3qMhevc5FPrKQXxK73y2-30" style="edgeStyle=orthogonalEdgeStyle;rounded=0;orthogonalLoop=1;jettySize=auto;html=1;exitX=0;exitY=0.5;exitDx=0;exitDy=0;strokeWidth=3;fillColor=#60a917;strokeColor=#2D7600;" edge="1" parent="1" source="3qMhevc5FPrKQXxK73y2-27" target="3qMhevc5FPrKQXxK73y2-25">
          <mxGeometry relative="1" as="geometry" />
        </mxCell>
        <mxCell id="3qMhevc5FPrKQXxK73y2-32" style="edgeStyle=orthogonalEdgeStyle;rounded=0;orthogonalLoop=1;jettySize=auto;html=1;exitX=0.25;exitY=1;exitDx=0;exitDy=0;strokeWidth=3;fillColor=#60a917;strokeColor=#2D7600;" edge="1" parent="1" source="3qMhevc5FPrKQXxK73y2-27" target="3qMhevc5FPrKQXxK73y2-26">
          <mxGeometry relative="1" as="geometry">
            <Array as="points">
              <mxPoint x="1140" y="550" />
              <mxPoint x="720" y="550" />
            </Array>
          </mxGeometry>
        </mxCell>
        <mxCell id="3qMhevc5FPrKQXxK73y2-33" style="edgeStyle=orthogonalEdgeStyle;rounded=0;orthogonalLoop=1;jettySize=auto;html=1;exitX=0.5;exitY=1;exitDx=0;exitDy=0;entryX=0.5;entryY=0;entryDx=0;entryDy=0;strokeWidth=3;fillColor=#60a917;strokeColor=#2D7600;" edge="1" parent="1" source="3qMhevc5FPrKQXxK73y2-27" target="3qMhevc5FPrKQXxK73y2-28">
          <mxGeometry relative="1" as="geometry" />
        </mxCell>
        <mxCell id="3qMhevc5FPrKQXxK73y2-34" style="edgeStyle=orthogonalEdgeStyle;rounded=0;orthogonalLoop=1;jettySize=auto;html=1;exitX=0.75;exitY=1;exitDx=0;exitDy=0;strokeWidth=3;fillColor=#60a917;strokeColor=#2D7600;" edge="1" parent="1" source="3qMhevc5FPrKQXxK73y2-27" target="3qMhevc5FPrKQXxK73y2-29">
          <mxGeometry relative="1" as="geometry" />
        </mxCell>
        <mxCell id="3qMhevc5FPrKQXxK73y2-51" style="edgeStyle=orthogonalEdgeStyle;rounded=0;orthogonalLoop=1;jettySize=auto;html=1;exitX=1;exitY=0.5;exitDx=0;exitDy=0;strokeWidth=3;fillColor=#60a917;strokeColor=#2D7600;" edge="1" parent="1" source="3qMhevc5FPrKQXxK73y2-27" target="3qMhevc5FPrKQXxK73y2-22">
          <mxGeometry relative="1" as="geometry" />
        </mxCell>
        <mxCell id="3qMhevc5FPrKQXxK73y2-27" value="SignUpController" style="rounded=0;whiteSpace=wrap;html=1;" vertex="1" parent="1">
          <mxGeometry x="1110" y="480" width="120" height="60" as="geometry" />
        </mxCell>
        <mxCell id="3qMhevc5FPrKQXxK73y2-28" value="HttpRespone" style="rounded=1;whiteSpace=wrap;html=1;dashed=1;" vertex="1" parent="1">
          <mxGeometry x="920" y="580" width="80" height="60" as="geometry" />
        </mxCell>
        <mxCell id="3qMhevc5FPrKQXxK73y2-29" value="Controller" style="rounded=1;whiteSpace=wrap;html=1;dashed=1;" vertex="1" parent="1">
          <mxGeometry x="1140" y="580" width="80" height="60" as="geometry" />
        </mxCell>
        <mxCell id="3qMhevc5FPrKQXxK73y2-39" style="edgeStyle=orthogonalEdgeStyle;rounded=0;orthogonalLoop=1;jettySize=auto;html=1;exitX=0.5;exitY=1;exitDx=0;exitDy=0;strokeWidth=3;fillColor=#60a917;strokeColor=#2D7600;" edge="1" parent="1" source="3qMhevc5FPrKQXxK73y2-36" target="3qMhevc5FPrKQXxK73y2-38">
          <mxGeometry relative="1" as="geometry" />
        </mxCell>
        <mxCell id="3qMhevc5FPrKQXxK73y2-52" style="edgeStyle=orthogonalEdgeStyle;rounded=0;orthogonalLoop=1;jettySize=auto;html=1;exitX=1;exitY=0.5;exitDx=0;exitDy=0;strokeWidth=3;fillColor=#60a917;strokeColor=#2D7600;" edge="1" parent="1" source="3qMhevc5FPrKQXxK73y2-36" target="3qMhevc5FPrKQXxK73y2-25">
          <mxGeometry relative="1" as="geometry" />
        </mxCell>
        <mxCell id="3qMhevc5FPrKQXxK73y2-36" value="EmailValidatorAdpter" style="rounded=0;whiteSpace=wrap;html=1;" vertex="1" parent="1">
          <mxGeometry x="525" y="480" width="120" height="60" as="geometry" />
        </mxCell>
        <mxCell id="3qMhevc5FPrKQXxK73y2-38" value="Validator" style="rounded=0;whiteSpace=wrap;html=1;gradientColor=#b3b3b3;fillColor=#f5f5f5;strokeColor=#666666;" vertex="1" parent="1">
          <mxGeometry x="525" y="620" width="120" height="60" as="geometry" />
        </mxCell>
        <mxCell id="3qMhevc5FPrKQXxK73y2-59" value="Infra" style="text;html=1;align=center;verticalAlign=middle;resizable=0;points=[];autosize=1;" vertex="1" parent="1">
          <mxGeometry x="1200" y="110" width="40" height="20" as="geometry" />
        </mxCell>
        <mxCell id="3qMhevc5FPrKQXxK73y2-60" value="Domain" style="text;html=1;align=center;verticalAlign=middle;resizable=0;points=[];autosize=1;" vertex="1" parent="1">
          <mxGeometry x="1480" y="240" width="60" height="20" as="geometry" />
        </mxCell>
        <mxCell id="3qMhevc5FPrKQXxK73y2-61" value="Data" style="text;html=1;align=center;verticalAlign=middle;resizable=0;points=[];autosize=1;" vertex="1" parent="1">
          <mxGeometry x="1200" y="240" width="40" height="20" as="geometry" />
        </mxCell>
        <mxCell id="3qMhevc5FPrKQXxK73y2-62" value="Presentation" style="text;html=1;align=center;verticalAlign=middle;resizable=0;points=[];autosize=1;" vertex="1" parent="1">
          <mxGeometry x="1170" y="445" width="80" height="20" as="geometry" />
        </mxCell>
        <mxCell id="3qMhevc5FPrKQXxK73y2-63" value="Utils&lt;br&gt;" style="text;html=1;align=center;verticalAlign=middle;resizable=0;points=[];autosize=1;" vertex="1" parent="1">
          <mxGeometry x="620" y="445" width="40" height="20" as="geometry" />
        </mxCell>
        <mxCell id="3qMhevc5FPrKQXxK73y2-64" value="Main" style="text;html=1;align=center;verticalAlign=middle;resizable=0;points=[];autosize=1;" vertex="1" parent="1">
          <mxGeometry x="420" y="230" width="40" height="20" as="geometry" />
        </mxCell>
      </root>
    </mxGraphModel>
  </diagram>
</mxfile>
